<?xml version="1.0" encoding="UTF-8"?>
<svg width="125px" height="125px" viewBox="0 0 125 125" version="1.1" xmlns="http://www.w3.org/2000/svg" xmlns:xlink="http://www.w3.org/1999/xlink">
    <defs>
        <linearGradient x1="50%" y1="0%" x2="50%" y2="100%" id="linearGradient-1">
            <stop stop-color="#FF4E65" offset="0%"></stop>
            <stop stop-color="#FF2674" offset="100%"></stop>
        </linearGradient>
        <polygon id="path-2" points="0.431258199 23.6170213 22.2250043 23.6170213 22.2250043 0.869189362 0.431258199 0.869189362 0.431258199 23.6170213"></polygon>
    </defs>
    <g id="IDENTITY-/-COLORS-/-FONTS" stroke="none" stroke-width="1" fill="none" fill-rule="evenodd">
        <g id="Identity-/-Fonts-/-Colors" transform="translate(-1091.000000, -130.000000)">
            <g id="Group-12" transform="translate(1091.000000, 130.000000)">
                <circle id="Oval-10" fill="url(#linearGradient-1)" cx="62.5" cy="62.5" r="62.5"></circle>
                <g id="Page-1" transform="translate(18.000000, 18.000000)">
                    <g id="Group-3" transform="translate(32.191489, 63.701257)">
                        <mask id="mask-3" fill="white">
                            <use xlink:href="#path-2"></use>
                        </mask>
                        <g id="Clip-2"></g>
                        <path d="M0.435153191,11.5435085 L0.431365957,12.6758915 C0.404855319,18.6843383 5.27334468,23.5925936 11.2817915,23.6172106 L11.3272383,23.6172106 C17.3148553,23.6191043 22.1966,18.7619766 22.2231106,12.7667851 L22.2250043,12.3842745 L11.2022596,0.869189362 L0.435153191,11.5435085 Z" id="Fill-1" fill="#FFFFFF" mask="url(#mask-3)"></path>
                    </g>
                    <path d="M54.6861447,13.0864085 L54.6956128,10.9466213 C54.7221234,4.93817447 49.853634,0.0280255319 43.8451872,0.00530212766 C40.9593149,-0.0855914894 38.194634,1.1149617 36.1268043,3.1619617 C34.0608681,5.21274894 32.9171234,7.94334468 32.9038681,10.853834 L32.8981872,12.2437489 L43.9209319,23.758834 L54.6861447,13.0864085 Z" id="Fill-4" fill="#FFFFFF"></path>
                    <path d="M29.4828596,13.606017 L28.8712213,12.9659745 C26.8583064,10.8640596 24.1485404,9.67108085 21.2380511,9.60859149 C18.3105191,9.5536766 15.5666681,10.619783 13.4647532,12.6308043 C9.12458298,16.7872936 8.97498723,23.6971021 13.129583,28.0372723 L14.7562,29.7377404 L37.7958383,29.8343149 L41.5035404,26.1588043 L29.4828596,13.606017 Z" id="Fill-6" fill="#FFFFFF"></path>
                    <path d="M74.1845298,60.2937128 L72.5598064,58.5951383 L49.5220617,58.4966702 L45.812466,62.1721809 L58.4428915,75.3650106 C62.5974872,79.7013936 69.511083,79.852883 73.8493596,75.7001809 C78.1876362,71.5436915 78.3391255,64.633883 74.1845298,60.2937128" id="Fill-8" fill="#FFFFFF"></path>
                    <path d="M76.464634,33.4094638 L74.8304426,33.4018894 L63.7111234,44.4265277 L61.2910809,46.8257404 L57.9355915,50.1528255 L54.5119319,53.5461872 L52.9459106,55.1008468 L76.3718468,55.2012085 L76.4191872,55.2012085 C79.312634,55.2012085 82.0337617,54.0820809 84.0902298,52.0445489 C86.156166,49.9937617 87.3018043,47.2612723 87.313166,44.350783 C87.3396766,38.3442298 82.4730809,33.4359745 76.464634,33.4094638" id="Fill-10" fill="#FFFFFF"></path>
                    <path d="M10.9424553,33.1303447 L10.8932213,33.1303447 C7.99977447,33.1303447 5.28054043,34.2494723 3.22407234,36.2870043 C1.15813617,38.3358979 0.0143914894,41.0664936 0.00113617021,43.9788766 C-0.0121191489,46.889366 1.10890213,49.6294298 3.15968936,51.6972596 C5.20858298,53.7631957 7.93917872,54.908834 10.8496681,54.9201957 L12.4857532,54.9277702 L34.3702851,33.2307064 L10.9424553,33.1303447 Z" id="Fill-12" fill="#FFFFFF"></path>
                    <path d="M74.6596383,13.4266915 C70.4292979,9.16037234 63.5157021,9.12818085 59.249383,13.3623085 L12.7213191,59.4927128 C8.45310638,63.7249468 8.42280851,70.6366489 12.6550426,74.9029681 C16.8834894,79.1711809 23.7989787,79.2033723 28.0652979,74.9692447 L74.5933617,28.8388404 C78.8615745,24.6066064 78.8880851,17.6930106 74.6596383,13.4266915" id="Fill-14" fill="#FFFFFF"></path>
                </g>
            </g>
        </g>
    </g>
</svg>